<svg width="90" height="90" viewBox="0 0 90 90" fill="none" xmlns="http://www.w3.org/2000/svg">
<path fill-rule="evenodd" clip-rule="evenodd" d="M7.5 19.6875C8.24592 19.6875 8.96129 19.9838 9.48874 20.5113C10.0162 21.0387 10.3125 21.7541 10.3125 22.5V57.1875H84.9112V58.6612L84.9075 60V67.5C84.9075 68.2459 84.6112 68.9613 84.0837 69.4887C83.5563 70.0162 82.8409 70.3125 82.095 70.3125C81.3491 70.3125 80.6337 70.0162 80.1063 69.4887C79.5788 68.9613 79.2825 68.2459 79.2825 67.5V62.8125H10.3125V67.5C10.3125 68.2459 10.0162 68.9613 9.48874 69.4887C8.96129 70.0162 8.24592 70.3125 7.5 70.3125C6.75408 70.3125 6.03871 70.0162 5.51126 69.4887C4.98382 68.9613 4.6875 68.2459 4.6875 67.5V22.5C4.6875 21.7541 4.98382 21.0387 5.51126 20.5113C6.03871 19.9838 6.75408 19.6875 7.5 19.6875Z" fill="black"/>
<path opacity="0.5" d="M26.25 50.625C28.7364 50.625 31.121 49.6373 32.8791 47.8791C34.6373 46.121 35.625 43.7364 35.625 41.25C35.625 38.7636 34.6373 36.379 32.8791 34.6209C31.121 32.8627 28.7364 31.875 26.25 31.875C23.7636 31.875 21.379 32.8627 19.6209 34.6209C17.8627 36.379 16.875 38.7636 16.875 41.25C16.875 43.7364 17.8627 46.121 19.6209 47.8791C21.379 49.6373 23.7636 50.625 26.25 50.625ZM83.8575 44.4337C82.9272 41.775 81.4097 39.3601 79.418 37.3683C77.4262 35.3765 75.0112 33.8591 72.3525 32.9288C69.345 31.875 65.6025 31.875 58.125 31.875H58.1175C55.125 31.875 51.225 31.875 50.0212 32.295C48.958 32.6672 47.9922 33.274 47.1956 34.0706C46.399 34.8672 45.7922 35.833 45.42 36.8962C45 38.1 45 39.6 45 42.5888V57.1875H84.9112C84.9075 50.6738 84.8363 47.235 83.8613 44.4337" fill="black"/>
</svg>
