<svg width="21" height="20" viewBox="0 0 21 20" fill="none" xmlns="http://www.w3.org/2000/svg">
<path d="M17.8339 13.1047C19.3809 9.44106 17.9924 5.11327 14.4593 3.07346C11.9062 1.59942 8.87828 1.69261 6.4896 3.05456L5.49724 1.31775C8.48308 -0.384646 12.2679 -0.501136 15.4593 1.34141C19.95 3.93409 21.669 9.48376 19.5768 14.111L20.9186 14.8857L16.7535 17.0998L16.5885 12.3857L17.8339 13.1047ZM3.08469 6.89864C1.53771 10.5623 2.92624 14.8901 6.45929 16.9299C9.01238 18.4039 12.0402 18.3108 14.4288 16.9489L15.4212 18.6857C12.4354 20.388 8.65068 20.5045 5.45929 18.662C0.96865 16.0693 -0.750355 10.5196 1.3418 5.89238L0 5.11769L4.16507 2.90359L4.33013 7.61769L3.08469 6.89864ZM6.95929 12.0017H12.4593C12.7355 12.0017 12.9593 11.7778 12.9593 11.5017C12.9593 11.2256 12.7355 11.0017 12.4593 11.0017H8.45928C7.07858 11.0017 5.95929 9.88236 5.95929 8.50166C5.95929 7.12096 7.07858 6.00167 8.45928 6.00167H9.45928V5.00167H11.4593V6.00167H13.9593V8.00166H8.45928C8.18315 8.00166 7.95929 8.22556 7.95929 8.50166C7.95929 8.77776 8.18315 9.00166 8.45928 9.00166H12.4593C13.84 9.00166 14.9593 10.121 14.9593 11.5017C14.9593 12.8824 13.84 14.0017 12.4593 14.0017H11.4593V15.0017H9.45928V14.0017H6.95929V12.0017Z" fill="#2FA3DB"/>
</svg>
