<svg width="21" height="21" viewBox="0 0 21 21" fill="none" xmlns="http://www.w3.org/2000/svg">
<path d="M10.2451 20.6113C4.72227 20.6113 0.245117 16.1341 0.245117 10.6113C0.245117 5.08848 4.72227 0.611328 10.2451 0.611328C15.7679 0.611328 20.2451 5.08848 20.2451 10.6113C20.2451 16.1341 15.7679 20.6113 10.2451 20.6113ZM6.24512 11.6113C6.24512 13.8204 8.03598 15.6113 10.2451 15.6113C12.4542 15.6113 14.2451 13.8204 14.2451 11.6113H6.24512ZM6.24512 9.61133C7.07355 9.61133 7.74512 8.93973 7.74512 8.11133C7.74512 7.2829 7.07355 6.61133 6.24512 6.61133C5.41669 6.61133 4.74512 7.2829 4.74512 8.11133C4.74512 8.93973 5.41669 9.61133 6.24512 9.61133ZM14.2451 9.61133C15.0735 9.61133 15.7451 8.93973 15.7451 8.11133C15.7451 7.2829 15.0735 6.61133 14.2451 6.61133C13.4167 6.61133 12.7451 7.2829 12.7451 8.11133C12.7451 8.93973 13.4167 9.61133 14.2451 9.61133Z" fill="#A6A6A6"/>
</svg>
