<svg xmlns="http://www.w3.org/2000/svg" width="30" height="55" fill="none" viewBox="0 0 30 55" data-testid="personalItem-pictogram" pointer-events="all" aria-hidden="true" class="etiPictogram css-1wfee0u" role="presentation"><path stroke="#064A75" stroke-width="3.067" d="M14.667 8.367c-1.333 0-10 22.363-10 22.363h20.667S16 8.367 14.667 8.367z"></path><rect width="28" height="17.62" x="0.999" y="30.38" fill="#B3EDFF" rx="2.044"></rect><path fill="#0B99F0" d="M0 30.392c0-1.13.915-2.045 2.044-2.045h25.912c1.129 0 2.044.915 2.044 2.045v9.126a2.044 2.044 0 0 1-2.044 2.044H2.044A2.044 2.044 0 0 1 0 39.518z"></path><rect width="8.132" height="2" fill="#064A75" rx="1" transform="matrix(.00303 1 -1 .00313 8.333 37.492)"></rect><rect width="8.132" height="2" fill="#064A75" rx="1" transform="matrix(.00303 1 -1 .00313 23 37.496)"></rect></svg>