<?xml version="1.0" standalone="no"?>
<!DOCTYPE svg PUBLIC "-//W3C//DTD SVG 20010904//EN"
 "http://www.w3.org/TR/2001/REC-SVG-20010904/DTD/svg10.dtd">
<svg version="1.0" xmlns="http://www.w3.org/2000/svg"
 width="396.000000pt" height="171.000000pt" viewBox="0 0 396.000000 171.000000"
 preserveAspectRatio="xMidYMid meet">

<g transform="translate(0.000000,171.000000) scale(0.100000,-0.100000)"
fill="#000000" stroke="none">
<path d="M825 1490 l-120 -120 123 0 122 0 0 -122 0 -123 125 125 125 125 0
117 0 118 -128 0 -127 0 -120 -120z"/>
<path d="M70 805 l0 -315 60 0 60 0 0 125 0 125 65 0 65 0 0 65 0 65 -65 0
-65 0 0 125 0 125 -60 0 -60 0 0 -315z"/>
<path d="M450 998 l0 -122 60 59 60 59 0 63 0 63 -60 0 -60 0 0 -122z"/>
<path d="M2488 1114 c-5 -4 -8 -146 -8 -316 l0 -308 65 0 65 0 0 89 0 88 86 7
c129 10 181 37 215 111 21 45 25 147 9 205 -11 41 -61 93 -105 111 -35 13
-316 25 -327 13z m285 -124 c31 -25 43 -82 27 -139 -14 -52 -48 -71 -130 -71
l-60 0 0 115 0 115 69 0 c53 0 74 -4 94 -20z"/>
<path d="M1325 943 c-20 -11 -30 -12 -33 -4 -2 6 -27 11 -63 11 l-59 0 0 -325
0 -325 60 0 60 0 0 93 0 92 83 0 c104 0 141 19 176 90 21 42 25 62 24 146 0
82 -4 105 -24 146 -32 64 -77 93 -143 93 -28 -1 -64 -8 -81 -17z m106 -125
c16 -27 19 -46 17 -109 -4 -102 -19 -119 -100 -119 l-58 0 0 124 c0 139 -4
133 78 135 37 1 45 -3 63 -31z"/>
<path d="M1775 953 c-38 -9 -87 -56 -108 -102 -32 -71 -30 -209 3 -276 15 -30
38 -57 57 -68 45 -26 127 -32 222 -17 l81 12 0 47 0 46 -109 -3 c-100 -3 -112
-1 -130 17 -12 12 -21 30 -21 41 0 19 7 20 135 20 l135 0 1 43 c5 129 -19 189
-91 225 -43 21 -121 28 -175 15z m128 -110 c8 -10 17 -31 19 -48 l3 -30 -77
-3 -78 -3 0 31 c0 17 9 39 20 50 26 26 90 27 113 3z"/>
<path d="M2325 939 c-27 -11 -55 -25 -62 -31 -10 -8 -13 -4 -13 16 0 25 -2 26
-60 26 l-60 0 0 -230 0 -230 60 0 60 0 0 154 0 154 33 11 c17 5 51 15 75 21
l42 11 0 59 c0 68 -1 69 -75 39z"/>
<path d="M3073 949 l-53 -11 0 -44 0 -44 98 6 c96 7 99 6 115 -17 35 -50 12
-69 -82 -69 -59 0 -108 -19 -135 -51 -21 -25 -26 -41 -26 -87 0 -31 6 -68 13
-81 32 -62 114 -85 210 -57 36 11 63 13 79 8 13 -5 35 -12 51 -16 l27 -6 0
180 c0 262 -16 292 -165 296 -44 2 -104 -2 -132 -7z m177 -308 c0 -54 -9 -61
-82 -61 -43 0 -64 26 -54 66 8 30 36 43 94 43 l42 1 0 -49z"/>
<path d="M660 938 c1 -7 25 -110 54 -228 l53 -215 41 -3 c23 -2 42 -7 42 -13
0 -5 -9 -42 -20 -81 -28 -102 -29 -99 37 -96 l57 3 78 310 c42 171 78 316 78
323 0 8 -18 12 -58 12 l-58 0 -39 -170 c-41 -179 -50 -203 -63 -183 -4 6 -25
88 -47 182 l-39 171 -58 0 c-40 0 -58 -4 -58 -12z"/>
<path d="M3430 943 c0 -8 82 -347 101 -415 9 -36 12 -38 49 -38 47 0 46 1 20
-100 -11 -41 -20 -78 -20 -82 0 -5 26 -8 58 -8 l57 0 81 325 82 326 -62 -3
-61 -3 -41 -174 c-22 -96 -46 -177 -51 -178 -7 -3 -28 69 -54 176 l-43 181
-58 0 c-32 0 -58 -3 -58 -7z"/>
<path d="M391 806 l-54 -55 54 -3 54 -3 3 -59 3 -59 60 59 c59 58 59 59 59
116 l0 58 -63 0 c-63 0 -63 0 -116 -54z"/>
<path d="M450 560 l0 -60 60 0 60 0 0 60 0 60 -60 0 -60 0 0 -60z"/>
</g>
</svg>
