<svg width="90" height="90" viewBox="0 0 90 90" fill="none" xmlns="http://www.w3.org/2000/svg">
<path opacity="0.5" d="M45 7.5C28.4325 7.5 15 22.5112 15 39.375C15 56.1075 24.5737 74.295 39.5137 81.2775C41.2309 82.0816 43.1039 82.4983 45 82.4983C46.8961 82.4983 48.7691 82.0816 50.4863 81.2775C65.4263 74.295 75 56.1075 75 39.375C75 22.5112 61.5675 7.5 45 7.5Z" fill="black"/>
<path d="M45 46.875C47.4864 46.875 49.871 45.8873 51.6291 44.1291C53.3873 42.371 54.375 39.9864 54.375 37.5C54.375 35.0136 53.3873 32.629 51.6291 30.8709C49.871 29.1127 47.4864 28.125 45 28.125C42.5136 28.125 40.129 29.1127 38.3709 30.8709C36.6127 32.629 35.625 35.0136 35.625 37.5C35.625 39.9864 36.6127 42.371 38.3709 44.1291C40.129 45.8873 42.5136 46.875 45 46.875Z" fill="white"/>
</svg>
