<svg width="23" height="19" viewBox="0 0 23 19" fill="none" xmlns="http://www.w3.org/2000/svg">
<path d="M4 7C4.55229 7 5 7.44771 5 7.99999C6.63477 7.99999 8.13864 8.56039 9.33002 9.49949L11.5 9.49999C12.8326 9.49999 14.0299 10.0793 14.8539 10.9997L18 11C19.9923 11 21.7124 12.1653 22.5161 13.8514C20.1513 16.972 16.3219 19 12 19C9.20932 19 6.84978 18.3968 4.93912 17.3421C4.80069 17.7256 4.43239 18 4 18H1C0.44772 18 0 17.5523 0 17V7.99999C0 7.44771 0.44772 7 1 7H4ZM5.00101 9.99999L5 15.022L5.04536 15.0545C6.83918 16.3149 9.17812 17 12 17C15.004 17 17.7986 15.8444 19.8351 13.8706L19.968 13.737L19.8488 13.6366C19.3848 13.2736 18.8156 13.0484 18.205 13.0069L18 13H15.8885C15.9615 13.3216 16 13.6563 16 14V15H7V13L13.79 12.999L13.7556 12.9205C13.3751 12.1269 12.5881 11.5653 11.6644 11.5053L11.5 11.5L8.57059 11.4999C7.66335 10.5745 6.39924 10.0003 5.00101 9.99999ZM3 8.99999H2V16H3V8.99999ZM17 3C18.6568 3 20 4.34314 20 6C20 7.65685 18.6568 8.99999 17 8.99999C15.3431 8.99999 14 7.65685 14 6C14 4.34314 15.3431 3 17 3ZM17 5C16.4477 5 16 5.44771 16 6C16 6.55228 16.4477 7 17 7C17.5523 7 18 6.55228 18 6C18 5.44771 17.5523 5 17 5ZM10 0C11.6568 0 13 1.34314 13 3C13 4.65685 11.6568 6 10 6C8.34315 6 7 4.65685 7 3C7 1.34314 8.34315 0 10 0ZM10 2C9.44772 2 9.00002 2.44771 9.00002 3C9.00002 3.55228 9.44772 4 10 4C10.5523 4 11 3.55228 11 3C11 2.44771 10.5523 2 10 2Z" fill="#2FA3DB"/>
</svg>
