<svg width="90" height="90" viewBox="0 0 90 90" fill="none" xmlns="http://www.w3.org/2000/svg">
<path d="M74.625 8.65123C74.4925 8.31146 74.2605 8.0196 73.9594 7.81384C73.6583 7.60807 73.3022 7.49799 72.9375 7.49799C72.5728 7.49799 72.2166 7.60807 71.9155 7.81384C71.6144 8.0196 71.3825 8.31146 71.25 8.65123L69.6375 12.7575C69.5479 12.99 69.4109 13.2014 69.2353 13.3783C69.0598 13.5552 68.8494 13.6937 68.6175 13.785L64.5262 15.405C64.1874 15.5399 63.8969 15.7734 63.6922 16.0753C63.4876 16.3771 63.3781 16.7334 63.3781 17.0981C63.3781 17.4628 63.4876 17.8191 63.6922 18.1209C63.8969 18.4228 64.1874 18.6563 64.5262 18.7912L68.6175 20.4112C68.849 20.5021 69.0592 20.64 69.2347 20.8162C69.4103 20.9924 69.5474 21.2031 69.6375 21.435L71.25 25.5375C71.8575 27.075 74.025 27.075 74.625 25.5375L76.2375 21.4312C76.3279 21.199 76.4657 20.9881 76.6419 20.8119C76.8181 20.6357 77.029 20.498 77.2612 20.4075L81.3525 18.7875C81.6913 18.6525 81.9818 18.419 82.1865 18.1172C82.3912 17.8154 82.5006 17.459 82.5006 17.0944C82.5006 16.7297 82.3912 16.3734 82.1865 16.0715C81.9818 15.7697 81.6913 15.5362 81.3525 15.4012L77.2612 13.7812C77.0286 13.6903 76.8175 13.5521 76.6413 13.3752C76.465 13.1983 76.3275 12.9866 76.2375 12.7537L74.625 8.65123ZM60.1237 30.4875C59.9912 30.1477 59.7593 29.8559 59.4582 29.6501C59.1571 29.4443 58.8009 29.3342 58.4362 29.3342C58.0715 29.3342 57.7154 29.4443 57.4143 29.6501C57.1132 29.8559 56.8812 30.1477 56.7487 30.4875L56.16 31.9837C56.0699 32.2156 55.9328 32.4263 55.7572 32.6025C55.5817 32.7787 55.3715 32.9166 55.14 33.0075L53.6475 33.6C53.3087 33.7349 53.0182 33.9684 52.8135 34.2703C52.6088 34.5721 52.4994 34.9284 52.4994 35.2931C52.4994 35.6578 52.6088 36.0141 52.8135 36.3159C53.0182 36.6178 53.3087 36.8513 53.6475 36.9862L55.14 37.575C55.6087 37.7625 55.9762 38.13 56.16 38.6025L56.7487 40.0987C57.3525 41.6362 59.52 41.6362 60.1237 40.0987L60.7125 38.5987C60.8025 38.3669 60.9397 38.1562 61.1152 37.98C61.2908 37.8038 61.501 37.6659 61.7325 37.575L63.225 36.9862C63.5638 36.8513 63.8543 36.6178 64.059 36.3159C64.2636 36.0141 64.3731 35.6578 64.3731 35.2931C64.3731 34.9284 64.2636 34.5721 64.059 34.2703C63.8543 33.9684 63.5638 33.7349 63.225 33.6L61.7325 33.0075C61.501 32.9166 61.2908 32.7787 61.1152 32.6025C60.9397 32.4263 60.8025 32.2156 60.7125 31.9837L60.1237 30.4875Z" fill="black"/>
<path opacity="0.5" d="M45 82.5C65.7112 82.5 82.5 65.7112 82.5 45C82.5 43.2638 79.8975 42.975 79.0012 44.4638C77.0897 47.63 74.4826 50.3198 71.3776 52.3293C68.2725 54.3387 64.7508 55.6153 61.0794 56.0621C57.4079 56.509 53.6829 56.1145 50.1864 54.9085C46.69 53.7026 43.5138 51.7167 40.8986 49.1014C38.2833 46.4862 36.2974 43.31 35.0915 39.8136C33.8855 36.3171 33.491 32.5921 33.9379 28.9206C34.3847 25.2492 35.6613 21.7275 37.6707 18.6224C39.6802 15.5174 42.37 12.9103 45.5362 10.9988C47.025 10.0988 46.7362 7.5 45 7.5C24.2888 7.5 7.5 24.2888 7.5 45C7.5 65.7112 24.2888 82.5 45 82.5Z" fill="black"/>
</svg>
