<svg viewBox="0 0 25 24" class="weeu5y0igldgONhjECQT"><g id="icon-leading"><path id="\xF0\x9F\x8C\x88\xE2\x98\xB8\xEF\xB8\x8F Icon Color" fill-rule="evenodd" clip-rule="evenodd" d="M12.25 16C14.4591 16 16.25 14.2091 16.25 12C16.25 9.79086 14.4591 8 12.25 8C10.0409 8 8.25 9.79086 8.25 12C8.25 14.2091 10.0409 16 12.25 16ZM12.25 18C8.93629 18 6.25 15.3137 6.25 12C6.25 8.68629 8.93629 6 12.25 6C15.5637 6 18.25 8.68629 18.25 12C18.25 15.3137 15.5637 18 12.25 18ZM5.17893 3.51472L7.30025 5.63604C8.24306 6.57885 6.82885 7.99306 5.88604 7.05025L3.76472 4.92893C2.82191 3.98612 4.23612 2.57191 5.17893 3.51472ZM13.25 1V4C13.25 5.33333 11.25 5.33333 11.25 4V1C11.25 -0.333333 13.25 -0.333333 13.25 1ZM20.7353 4.92893L18.614 7.05025C17.6712 7.99306 16.2569 6.57885 17.1997 5.63604L19.3211 3.51472C20.2639 2.57191 21.6781 3.98612 20.7353 4.92893ZM23.25 13H20.25C18.9167 13 18.9167 11 20.25 11H23.25C24.5833 11 24.5833 13 23.25 13ZM19.3211 20.4853L17.1997 18.364C16.2569 17.4212 17.6712 16.0069 18.614 16.9497L20.7353 19.0711C21.6781 20.0139 20.2639 21.4281 19.3211 20.4853ZM11.25 23V20C11.25 18.6667 13.25 18.6667 13.25 20V23C13.25 24.3333 11.25 24.3333 11.25 23ZM3.76472 19.0711L5.88604 16.9497C6.82885 16.0069 8.24306 17.4212 7.30025 18.364L5.17893 20.4853C4.23612 21.4281 2.82191 20.0139 3.76472 19.0711ZM1.25 11H4.25C5.58333 11 5.58333 13 4.25 13H1.25C-0.0833333 13 -0.0833333 11 1.25 11Z"></path></g></svg>