<svg width="28" height="27" viewBox="0 0 28 27" fill="none" xmlns="http://www.w3.org/2000/svg">
<path d="M21.7031 19.428L27.3955 25.1203L25.5158 27L19.8235 21.3076C17.7767 22.9452 15.181 23.9247 12.3579 23.9247C5.75465 23.9247 0.395508 18.5656 0.395508 11.9624C0.395508 5.35914 5.75465 0 12.3579 0C18.9611 0 24.3202 5.35914 24.3202 11.9624C24.3202 14.7855 23.3407 17.3812 21.7031 19.428ZM19.0365 18.4417C20.6618 16.7667 21.6619 14.4819 21.6619 11.9624C21.6619 6.82187 17.4984 2.6583 12.3579 2.6583C7.21738 2.6583 3.05381 6.82187 3.05381 11.9624C3.05381 17.1029 7.21738 21.2664 12.3579 21.2664C14.8774 21.2664 17.1622 20.2662 18.8372 18.641L19.0365 18.4417Z" fill="white"/>
</svg>
