<?xml version="1.0" standalone="no"?>
<!DOCTYPE svg PUBLIC "-//W3C//DTD SVG 20010904//EN"
 "http://www.w3.org/TR/2001/REC-SVG-20010904/DTD/svg10.dtd">
<svg version="1.0" xmlns="http://www.w3.org/2000/svg"
 width="512.000000pt" height="512.000000pt" viewBox="0 0 512.000000 512.000000"
 preserveAspectRatio="xMidYMid meet">

<g transform="translate(0.000000,512.000000) scale(0.100000,-0.100000)"
fill="#000000" stroke="none">
<path d="M3160 4870 c-17 -17 -20 -33 -20 -100 0 -94 16 -120 74 -120 51 0 66
27 66 120 0 93 -15 120 -66 120 -21 0 -42 -8 -54 -20z"/>
<path d="M1219 4834 c-101 -31 -201 -126 -234 -223 -8 -25 -15 -70 -15 -101
l0 -57 -39 -11 c-49 -15 -126 -83 -153 -135 -52 -102 -26 -231 62 -310 26 -24
66 -49 88 -55 28 -9 197 -12 604 -12 639 0 625 -2 702 76 60 60 80 115 74 203
-8 113 -77 202 -179 232 -32 10 -39 17 -48 54 -6 23 -25 64 -43 91 -82 121
-224 171 -367 128 l-52 -15 -60 55 c-46 43 -74 60 -125 76 -76 23 -149 25
-215 4z m202 -152 c43 -22 61 -40 90 -87 52 -87 86 -94 161 -33 40 31 123 36
174 10 69 -36 104 -88 104 -157 0 -72 37 -105 117 -105 53 0 103 -54 103 -109
0 -23 -7 -55 -15 -71 -32 -61 -20 -60 -625 -60 -613 0 -592 -2 -625 66 -41 87
13 174 108 174 84 0 130 45 107 106 -14 36 -15 120 -1 155 15 42 72 100 116
120 59 27 123 24 186 -9z"/>
<path d="M2890 4793 c-25 -32 -22 -52 21 -125 36 -63 54 -78 90 -78 35 0 73
44 64 77 -7 31 -63 125 -83 141 -27 21 -69 14 -92 -15z"/>
<path d="M3436 4805 c-34 -35 -77 -125 -74 -157 4 -42 44 -67 85 -52 31 11
103 123 103 161 0 51 -78 84 -114 48z"/>
<path d="M2730 4622 c-31 -10 -50 -36 -50 -68 0 -37 19 -55 104 -100 53 -27
58 -28 83 -14 33 19 52 63 37 88 -13 20 -98 78 -133 90 -14 5 -33 7 -41 4z"/>
<path d="M3609 4596 c-80 -42 -107 -75 -93 -113 5 -15 22 -34 37 -43 26 -14
31 -13 94 20 79 42 107 75 97 114 -5 21 -46 56 -67 56 -2 0 -33 -15 -68 -34z"/>
<path d="M3130 4597 c-91 -26 -172 -96 -212 -182 -35 -75 -32 -190 5 -267 30
-62 83 -115 149 -150 36 -19 58 -23 138 -23 80 0 102 4 140 24 61 32 116 86
148 146 23 43 27 62 27 140 0 105 -22 162 -88 228 -76 76 -208 112 -307 84z
m182 -162 c90 -60 104 -190 30 -268 -38 -41 -74 -57 -126 -57 -81 0 -134 33
-167 105 -41 90 -9 181 82 228 65 34 121 32 181 -8z"/>
<path d="M2641 4347 c-37 -19 -48 -63 -24 -96 19 -24 26 -26 106 -29 76 -2 89
0 107 18 29 29 26 74 -6 99 -21 17 -41 21 -93 21 -36 0 -77 -6 -90 -13z"/>
<path d="M3596 4336 c-31 -30 -33 -69 -6 -96 17 -17 33 -20 105 -20 72 0 88 3
105 20 25 25 26 61 1 91 -17 21 -30 24 -99 27 -76 4 -82 2 -106 -22z"/>
<path d="M2755 4104 c-69 -42 -75 -48 -75 -90 0 -37 26 -64 63 -64 32 0 143
64 157 90 16 29 12 58 -10 80 -29 29 -67 25 -135 -16z"/>
<path d="M3531 4114 c-24 -30 -24 -34 -12 -68 13 -32 130 -99 167 -94 15 2 36
15 47 29 31 43 13 76 -64 122 -76 44 -110 47 -138 11z"/>
<path d="M2969 3976 c-26 -13 -99 -130 -99 -159 0 -24 44 -67 68 -67 31 0 66
35 101 100 29 55 32 64 21 90 -15 36 -58 53 -91 36z"/>
<path d="M3410 3982 c-57 -18 -64 -68 -19 -147 48 -86 84 -103 133 -64 37 29
33 64 -16 139 -42 62 -68 82 -98 72z"/>
<path d="M3165 3905 c-22 -21 -25 -33 -25 -98 0 -88 22 -127 71 -127 53 0 69
29 69 124 0 79 -2 86 -26 105 -35 27 -59 26 -89 -4z"/>
<path d="M2083 3795 c-114 -31 -236 -114 -336 -229 -35 -40 -115 -144 -179
-231 -141 -195 -238 -309 -527 -620 -345 -370 -454 -508 -545 -684 -83 -161
-92 -238 -30 -261 15 -6 219 -10 515 -10 l489 0 0 -74 c0 -44 -5 -78 -11 -82
-23 -14 -49 -90 -49 -144 0 -109 57 -179 153 -188 41 -4 56 -11 76 -35 29 -34
77 -57 120 -57 l30 0 3 -378 3 -379 30 -49 c19 -30 49 -60 79 -79 45 -27 58
-30 132 -30 76 0 86 2 126 31 l43 30 43 -30 c35 -25 55 -31 112 -34 60 -4 78
-1 124 22 30 15 66 42 80 61 54 70 56 88 56 476 l0 359 31 0 c42 0 96 27 122
62 17 22 28 28 60 28 80 0 149 62 163 148 l7 42 48 0 48 0 3 -454 c3 -441 4
-455 24 -482 37 -50 72 -69 124 -69 52 0 87 19 124 69 20 27 21 41 24 507 l3
479 24 35 c38 58 42 120 10 198 -7 16 26 17 596 17 650 0 645 0 663 52 8 22 3
43 -26 110 -85 195 -143 397 -224 767 -65 301 -108 452 -159 558 -81 166 -184
249 -337 274 -193 31 -417 -90 -758 -411 -65 -60 -120 -110 -123 -110 -2 0
-28 42 -57 93 -81 140 -231 363 -300 445 -188 222 -414 314 -627 257z m299
-168 c88 -43 177 -121 262 -231 90 -115 150 -211 341 -541 276 -478 392 -643
588 -837 l118 -118 -145 0 -144 0 -3 114 c-4 97 -7 119 -25 142 -37 50 -72 69
-124 69 -52 0 -87 -19 -124 -69 -18 -23 -22 -45 -24 -142 l-4 -115 -131 3
-132 3 -23 65 c-61 177 -77 215 -112 269 -34 52 -99 113 -156 147 -17 10 -17
12 5 42 65 92 86 262 44 368 -44 113 -132 202 -240 245 -45 18 -79 23 -153 23
-87 1 -101 -2 -162 -31 -229 -108 -316 -379 -188 -586 17 -27 30 -51 30 -55 0
-4 -28 -23 -62 -42 -140 -80 -250 -233 -312 -432 -5 -17 -36 -18 -461 -18
-250 0 -455 3 -455 6 0 21 95 180 154 258 84 111 149 186 376 430 298 322 377
414 543 636 221 295 301 372 442 423 82 29 186 19 277 -26z m1615 -267 c110
-48 197 -205 258 -467 9 -37 39 -169 66 -293 57 -262 107 -444 161 -589 21
-57 38 -105 38 -107 0 -2 -128 -4 -284 -4 l-285 0 -89 60 c-214 143 -387 346
-612 719 l-111 184 43 45 c84 87 268 250 355 316 96 72 218 140 279 155 50 13
128 5 181 -19z m-1711 -445 c95 -28 173 -122 189 -227 9 -61 -15 -143 -58
-200 l-33 -43 -178 0 -179 0 -34 40 c-86 101 -81 249 13 353 73 83 172 109
280 77z m79 -636 c62 -29 131 -108 150 -172 11 -36 15 -97 15 -209 l0 -158
-325 0 -325 0 0 165 c0 141 3 172 20 217 33 86 103 150 188 175 69 19 218 10
277 -18z m-625 -364 l0 -175 -40 -16 c-22 -9 -51 -30 -65 -46 l-25 -30 0 39
c0 95 42 250 94 346 17 31 32 57 33 57 2 0 3 -79 3 -175z m1520 80 c0 -50 -4
-85 -10 -85 -6 0 -10 35 -10 85 0 50 4 85 10 85 6 0 10 -35 10 -85z m-535
-201 c19 -52 33 -74 51 -83 16 -7 108 -11 269 -11 208 0 246 -2 259 -16 21
-20 20 -43 -1 -66 -14 -16 -34 -18 -179 -18 -155 0 -165 1 -210 25 -26 14 -64
25 -84 25 -30 0 -41 6 -55 26 -9 14 -37 35 -61 45 l-44 20 1 102 c0 101 1 101
15 62 8 -22 25 -72 39 -111z m-60 -334 l0 -135 -460 0 -460 0 -3 124 c-1 69 0
131 2 138 4 11 92 13 463 11 l458 -3 0 -135z m-1065 -1 c0 -47 -2 -50 -22 -47
-18 2 -24 11 -26 36 -4 45 3 62 28 62 17 0 20 -6 20 -51z m1256 27 c10 -42 1
-71 -23 -74 -21 -3 -23 0 -23 47 0 44 3 51 20 51 12 0 22 -9 26 -24z m404
-455 c0 -276 -4 -432 -10 -436 -7 -4 -10 142 -10 429 0 284 3 436 10 436 7 0
10 -150 10 -429z m-780 -201 c0 -294 -2 -356 -15 -380 -19 -37 -43 -50 -92
-50 -31 0 -46 7 -69 31 l-29 30 -3 322 c-3 278 -5 324 -19 339 -22 25 -75 23
-99 -3 -18 -20 -19 -44 -24 -346 l-5 -325 -28 -24 c-41 -35 -99 -33 -138 5
l-29 29 0 361 0 361 275 0 275 0 0 -350z"/>
</g>
</svg>
