<svg xmlns="http://www.w3.org/2000/svg" width="60" height="70" fill="none" viewBox="0 0 60 70" data-testid="cabinBaggage-illustration" pointer-events="all" aria-hidden="true" class="etiIllustration css-1wfee0u" role="presentation"><path stroke="#064A75" stroke-width="2" d="M20.98 25.305V4.72A2.72 2.72 0 0 0 18.26 2h-5.105a2.72 2.72 0 0 0-2.721 2.721v20.584"></path><ellipse cx="21.337" cy="66.617" fill="#064A75" rx="2.043" ry="2.129"></ellipse><ellipse cx="9.525" cy="66.617" fill="#064A75" rx="2.043" ry="2.129"></ellipse><rect width="27" height="42.212" x="2" y="24.211" fill="#B3EDFF" rx="3.175"></rect><rect width="1.012" height="33.418" x="6.218" y="29.608" fill="#0B99F0" rx="0.506"></rect><rect width="1.012" height="33.418" x="19.381" y="29.608" fill="#0B99F0" rx="0.506"></rect><rect width="1.012" height="33.418" x="23.766" y="29.608" fill="#0B99F0" rx="0.506"></rect><rect width="1.012" height="33.418" x="14.992" y="29.608" fill="#0B99F0" rx="0.506"></rect><rect width="1.012" height="33.418" x="10.609" y="29.608" fill="#0B99F0" rx="0.506"></rect><path stroke="#064A75" stroke-width="0.769" d="M40.823 31.231c-.467.043-.88.086-1.176.119.137-.629.559-1.289 1.2-1.837.783-.67 1.849-1.128 2.973-1.128s2.189.458 2.973 1.128c.64.548 1.062 1.208 1.2 1.837a70 70 0 0 0-1.177-.119c-.934-.086-2.1-.174-2.996-.174s-2.063.088-2.997.174z"></path><path fill="#0B99F0" d="M57.488 56.748s-2.49-18.381-2.883-19.89c-.291-1.118-.91-1.8-1.579-2.656 0 0-1.098-1.041-2.159-1.723s-2.605-1.22-2.605-1.22h-8.884s-1.355.645-2.24 1.22c-.884.575-2.164 1.723-2.164 1.723-.743.821-1.28 1.508-1.58 2.657-.392 1.508-2.882 19.889-2.882 19.889s-.256 1.72-.343 2.8c-.023.284-.054.53-.084.762-.066.522-.123.97-.053 1.607.096.886.225 1.435.617 2.226.269.543.298.58.637 1.014l.05.063c.288.37.698.821 1.03 1.15.53.525.915.727 1.565 1.07l.013.006c1.017.535 1.75.659 2.748.827q.29.048.615.107c2.451.443 6.291.304 6.693.288.402.016 4.242.155 6.693-.288q.324-.059.614-.107c.999-.168 1.732-.292 2.749-.827l.014-.007c.649-.342 1.034-.544 1.565-1.07.331-.328.74-.779 1.03-1.149l.05-.063c.338-.434.367-.471.636-1.014.392-.79.521-1.34.617-2.226.07-.636.013-1.085-.053-1.607-.03-.232-.061-.478-.084-.762-.087-1.08-.343-2.8-.343-2.8"></path><rect width="15.923" height="31.204" x="35.972" y="36.407" fill="#064A75" stroke="#B3EDFF" stroke-width="0.963" rx="3.371"></rect><rect width="7.527" height="2.712" x="40.237" y="39.452" fill="#B3EDFF" stroke="#B3EDFF" stroke-width="0.161" rx="0.401"></rect><rect width="13.431" height="0.988" x="37.22" y="54.1" fill="#B3EDFF" stroke="#B3EDFF" stroke-width="0.161" rx="0.494"></rect><path fill="#064A75" stroke="#064A75" stroke-width="0.321" d="M37.17 29.216c-.436 0-2.521 1.063-2.9 1.538-.377.474.316 3.776.316 3.776s1.414-1.417 2.14-1.926c.668-.47 2.128-1.17 2.128-1.17s-1.247-2.218-1.684-2.218zm13.595-.04c.437 0 2.522 1.063 2.9 1.537.377.475-.315 3.777-.315 3.777s-1.414-1.417-2.14-1.927c-.669-.468-2.29-1.12-2.29-1.12s1.408-2.267 1.845-2.267z"></path></svg>