<svg width="20" height="19" viewBox="0 0 20 19" fill="none" xmlns="http://www.w3.org/2000/svg">
<path d="M10.0049 1.82638C12.3539 -0.282148 15.9839 -0.212148 18.2465 2.05521C20.5092 4.32257 20.5869 7.93485 18.4825 10.2909L10.0038 18.7829L1.52528 10.2909C-0.579046 7.93485 -0.500386 4.31686 1.76126 2.05521C4.02547 -0.208998 7.64909 -0.285278 10.0049 1.82638ZM16.8309 3.46795C15.3318 1.96579 12.9115 1.90486 11.3409 3.31472L10.0058 4.51309L8.67 3.31566C7.09488 1.90382 4.67896 1.96593 3.17547 3.46942C1.68573 4.95916 1.61094 7.34515 2.98383 8.92105L10.0038 15.9522L17.024 8.92105C18.3974 7.34455 18.3229 4.9631 16.8309 3.46795Z" fill="white"/>
</svg>
